<?xml version="1.0" encoding="UTF-8" standalone="no"?>
<svg
   xmlns:dc="http://purl.org/dc/elements/1.1/"
   xmlns:cc="http://creativecommons.org/ns#"
   xmlns:rdf="http://www.w3.org/1999/02/22-rdf-syntax-ns#"
   xmlns:svg="http://www.w3.org/2000/svg"
   xmlns="http://www.w3.org/2000/svg"
   xmlns:sodipodi="http://sodipodi.sourceforge.net/DTD/sodipodi-0.dtd"
   xmlns:inkscape="http://www.inkscape.org/namespaces/inkscape"
   height="32"
   version="1.1"
   viewBox="0 0 32 32"
   width="32"
   id="svg2"
   inkscape:version="0.91 r13725"
   sodipodi:docname="icon.svg">
  <metadata
     id="metadata13">
    <rdf:RDF>
      <cc:Work
         rdf:about="">
        <dc:format>image/svg+xml</dc:format>
        <dc:type
           rdf:resource="http://purl.org/dc/dcmitype/StillImage" />
        <dc:title></dc:title>
      </cc:Work>
    </rdf:RDF>
  </metadata>
  <sodipodi:namedview
     pagecolor="#ffffff"
     bordercolor="#666666"
     borderopacity="1"
     objecttolerance="10"
     gridtolerance="10"
     guidetolerance="10"
     inkscape:pageopacity="1"
     inkscape:pageshadow="2"
     inkscape:window-width="1418"
     inkscape:window-height="881"
     id="namedview11"
     showgrid="false"
     borderlayer="false"
     inkscape:zoom="14.75"
     inkscape:cx="10.877149"
     inkscape:cy="11.390412"
     inkscape:window-x="-2"
     inkscape:window-y="13"
     inkscape:window-maximized="0"
     inkscape:current-layer="layer1"
     units="mm" />
  <defs
     id="defs6" />
  <g
     inkscape:groupmode="layer"
     id="layer1"
     inkscape:label="background"
     style="display:inline">
    <path
       style="fill:#00ecff;fill-rule:evenodd;stroke:none;stroke-width:0.32800001;stroke-linejoin:bevel;stroke-miterlimit:4;stroke-dasharray:none;stroke-opacity:1;fill-opacity:1"
       d="m 15.879941,25.284484 c 2.245008,0 4.117663,-1.594231 4.547628,-3.712363 l 1.883216,0 c -0.450334,3.148354 -3.157956,5.568545 -6.430844,5.568545 -2.268693,0 -4.265779,-1.16289 -5.427701,-2.925117 l -1.0689354,1.068935 0,-0.928091 0,-1.856182 0,-0.92809 0.065791,0 1.8832164,0 1.763356,0 -1.291775,1.291775 c 0.787113,1.4422 2.317323,2.420588 4.076048,2.420588 z m 4.547628,-5.568545 -0.835265,0 -0.928091,0 1.291787,-1.291755 c -0.78709,-1.442199 -2.317315,-2.420608 -4.076059,-2.420608 -2.245008,0 -4.117664,1.59423 -4.547629,3.712363 l -1.8832162,0 c 0.4503338,-3.148354 3.1579572,-5.568545 6.4308452,-5.568545 2.268706,0 4.265802,1.162904 5.427727,2.925156 l 1.068909,-1.068884 0,3.712273 -0.06579,0 z M 1.0304871,18.787848 c 0,-2.057728 1.1207066,-3.859335 2.7862339,-4.823293 0.097257,-4.5287047 3.7988238,-8.1699787 8.350856,-8.1699787 3.00098,0 5.632325,1.5825912 7.104972,3.95871 0.542688,-0.160308 1.117242,-0.246347 1.711891,-0.246347 2.584319,0 4.789088,1.6250397 5.648216,3.9090237 2.360934,0.64554 4.096738,2.806054 4.096738,5.371885 0,3.069165 -2.493195,5.568545 -5.568708,5.568545 l -1.796175,0 c 0.289881,-0.58331 0.513578,-1.205313 0.661268,-1.856182 l 1.138004,0 c 2.048661,0 3.70943,-1.666253 3.70943,-3.712363 0,-2.050282 -1.665107,-3.712363 -3.70943,-3.712363 l -0.02842,0 c -0.230852,-2.08819 -2.001215,-3.712364 -4.150925,-3.712364 -0.981221,0 -1.883408,0.338381 -2.596235,0.904817 -0.806082,-2.6715977 -3.286147,-4.6171801 -6.220628,-4.6171801 -3.587993,0 -6.4966358,2.9086431 -6.4966358,6.4966361 0,0.348768 0.027483,0.691118 0.080401,1.025 -1.6416468,0.383448 -2.8646739,1.859583 -2.8646739,3.615454 0,2.050282 1.6651066,3.712363 3.7094296,3.712363 l 0.9310246,0 0,1.856182 -0.9279278,0 c -3.0749484,0 -5.568708,-2.493123 -5.568708,-5.568545 z m 0,0"
       id="Rectangle 1 copy 4-7"
       inkscape:connector-curvature="0" />
  </g>
</svg>
